<svg width="30" height="30" viewBox="0 0 30 30" fill="none" xmlns="http://www.w3.org/2000/svg">
<path d="M26.25 20.7796V9.21997C26.25 9.05362 26.2057 8.89027 26.1218 8.74668C26.0378 8.60308 25.9171 8.48442 25.7721 8.40287L15.4596 2.60209C15.3193 2.52315 15.161 2.48169 15 2.48169C14.839 2.48169 14.6807 2.52315 14.5404 2.60209L4.22788 8.40287C4.0829 8.48442 3.96222 8.60308 3.87824 8.74668C3.79426 8.89027 3.75 9.05362 3.75 9.21997V20.7796C3.75 20.946 3.79426 21.1093 3.87824 21.2529C3.96222 21.3965 4.0829 21.5152 4.22788 21.5967L14.5404 27.3975C14.6807 27.4764 14.839 27.5179 15 27.5179C15.161 27.5179 15.3193 27.4764 15.4596 27.3975L25.7721 21.5967C25.9171 21.5152 26.0378 21.3965 26.1218 21.2529C26.2057 21.1093 26.25 20.946 26.25 20.7796Z" stroke="#D85740" stroke-width="1.875" stroke-linecap="round" stroke-linejoin="round"/>
<path d="M26.1208 8.7452L15.1113 15L3.87988 8.74414" stroke="#D85740" stroke-width="1.875" stroke-linecap="round" stroke-linejoin="round"/>
<path d="M15.1115 15L15.0015 27.5181" stroke="#D85740" stroke-width="1.875" stroke-linecap="round" stroke-linejoin="round"/>
</svg>
