<svg width="31" height="31" viewBox="0 0 31 31" fill="none" xmlns="http://www.w3.org/2000/svg">
<path d="M25.7344 8.57812H4.76562C4.23923 8.57812 3.8125 9.00485 3.8125 9.53125V24.7812C3.8125 25.3076 4.23923 25.7344 4.76562 25.7344H25.7344C26.2608 25.7344 26.6875 25.3076 26.6875 24.7812V9.53125C26.6875 9.00485 26.2608 8.57812 25.7344 8.57812Z" stroke="#D85740" stroke-width="1.90625" stroke-linecap="round" stroke-linejoin="round"/>
<path d="M20.0156 8.57812V6.67188C20.0156 6.16631 19.8148 5.68144 19.4573 5.32395C19.0998 4.96646 18.6149 4.76563 18.1094 4.76562H12.3906C11.8851 4.76563 11.4002 4.96646 11.0427 5.32395C10.6852 5.68144 10.4844 6.16631 10.4844 6.67188V8.57812" stroke="#D85740" stroke-width="1.90625" stroke-linecap="round" stroke-linejoin="round"/>
<path d="M15.25 13.8203V20.4922" stroke="#D85740" stroke-width="1.90625" stroke-linecap="round" stroke-linejoin="round"/>
<path d="M18.5859 17.1562H11.9141" stroke="#D85740" stroke-width="1.90625" stroke-linecap="round" stroke-linejoin="round"/>
</svg>
