<svg width="52" height="51" viewBox="0 0 52 51" fill="none" xmlns="http://www.w3.org/2000/svg">
<path d="M17.3594 40.746C17.3594 40.9553 17.1188 41.1227 16.8153 41.1227C16.47 41.1541 16.2293 40.9867 16.2293 40.746C16.2293 40.5367 16.47 40.3693 16.7735 40.3693C17.0874 40.3379 17.3594 40.5054 17.3594 40.746ZM14.1052 40.2752C14.0319 40.4844 14.2412 40.7251 14.5551 40.7879C14.8272 40.8925 15.1411 40.7879 15.2039 40.5786C15.2667 40.3693 15.0679 40.1287 14.754 40.0345C14.4819 39.9612 14.1784 40.0659 14.1052 40.2752ZM18.7302 40.0973C18.4267 40.1705 18.2175 40.3693 18.2489 40.61C18.2802 40.8193 18.5523 40.9553 18.8662 40.8821C19.1697 40.8088 19.3789 40.61 19.3476 40.4007C19.3162 40.2019 19.0336 40.0659 18.7302 40.0973ZM25.6154 0C11.1021 0 0 11.0184 0 25.5317C0 37.136 7.30373 47.0662 17.7361 50.5611C19.0755 50.8017 19.5464 49.9751 19.5464 49.2949C19.5464 48.6462 19.515 45.0676 19.515 42.8702C19.515 42.8702 12.1903 44.4397 10.6521 39.752C10.6521 39.752 9.45927 36.707 7.74321 35.9222C7.74321 35.9222 5.347 34.2794 7.91063 34.3108C7.91063 34.3108 10.5161 34.5201 11.9497 37.0104C14.2412 41.0495 18.0814 39.888 19.5778 39.1974C19.8184 37.5232 20.4986 36.3617 21.252 35.6711C15.4027 35.0223 9.50113 34.1748 9.50113 24.1086C9.50113 21.231 10.2964 19.787 11.9706 17.9454C11.6985 17.2653 10.8091 14.461 12.2426 10.8405C14.4296 10.1603 19.4627 13.6657 19.4627 13.6657C21.5554 13.0797 23.8051 12.7763 26.0339 12.7763C28.2627 12.7763 30.5124 13.0797 32.6052 13.6657C32.6052 13.6657 37.6383 10.1499 39.8252 10.8405C41.2587 14.4714 40.3693 17.2653 40.0973 17.9454C41.7715 19.7975 42.7969 21.2415 42.7969 24.1086C42.7969 34.2061 36.6337 35.0119 30.7845 35.6711C31.7472 36.4977 32.5633 38.0673 32.5633 40.5263C32.5633 44.0526 32.5319 48.416 32.5319 49.274C32.5319 49.9542 33.0133 50.7808 34.3422 50.5401C44.806 47.0662 51.9004 37.136 51.9004 25.5317C51.9004 11.0184 40.1287 0 25.6154 0ZM10.1708 36.0896C10.0348 36.1943 10.0662 36.4349 10.2441 36.6338C10.4115 36.8012 10.6521 36.8744 10.7882 36.7384C10.9242 36.6338 10.8928 36.3931 10.7149 36.1943C10.5475 36.0268 10.3068 35.9536 10.1708 36.0896ZM9.04072 35.2421C8.96747 35.3781 9.07211 35.5455 9.28139 35.6502C9.44881 35.7548 9.65808 35.7234 9.73133 35.5769C9.80457 35.4409 9.69994 35.2735 9.49066 35.1688C9.28139 35.106 9.11397 35.1374 9.04072 35.2421ZM12.431 38.9672C12.2636 39.1032 12.3263 39.4171 12.567 39.6159C12.8077 39.8566 13.1111 39.888 13.2472 39.7206C13.3832 39.5845 13.3204 39.2706 13.1111 39.0718C12.8809 38.8311 12.567 38.7998 12.431 38.9672ZM11.2381 37.429C11.0707 37.5336 11.0707 37.8057 11.2381 38.0464C11.4055 38.287 11.6881 38.3917 11.8241 38.287C11.9915 38.151 11.9915 37.8789 11.8241 37.6383C11.6776 37.3976 11.4055 37.293 11.2381 37.429Z" fill="black"/>
</svg>
