<svg width="52" height="38" viewBox="0 0 52 38" fill="none" xmlns="http://www.w3.org/2000/svg">
<path d="M3.54545 37.7305H11.8182V18.2983L0 9.72534V34.3013C0 36.1959 1.58659 37.7305 3.54545 37.7305Z" fill="#4285F4"/>
<path d="M40.1819 37.7305H48.4546C50.4135 37.7305 52.0001 36.1959 52.0001 34.3013V9.72534L40.1819 18.2983V37.7305Z" fill="#34A853"/>
<path d="M40.1819 3.43845V18.2983L52.0001 9.72532V5.15305C52.0001 0.915122 46.998 -1.50533 43.491 1.038L40.1819 3.43845Z" fill="#FBBC04"/>
<path d="M11.8181 18.2984V3.43823L25.9999 13.726L40.1818 3.43823V18.2984L25.9999 28.5862L11.8181 18.2984Z" fill="#EA4335"/>
<path d="M0 5.15305V9.72532L11.8182 18.2983V3.43845L8.50909 1.038C5.00204 -1.50533 0 0.915122 0 5.15305Z" fill="#C5221F"/>
</svg>
