<svg width="110" height="106" viewBox="0 0 110 106" fill="none" xmlns="http://www.w3.org/2000/svg">
<path d="M26.381 13.3889L68.997 12.1079L81.87 52.9279L45.541 79.0439L11.389 53.5899L26.381 13.3889Z" fill="url(#paint0_linear_1:1293)"/>
<path opacity="0.44" d="M22.26 28.8791L27.47 14.9091L67.87 13.6941L80.052 52.3241L22.26 28.8791Z" fill="url(#paint1_linear_1:1293)"/>
<path d="M87.2041 4.22803L68.9971 12.108L81.8701 52.928L107.399 66.554L109.161 35.546L87.2041 4.22803Z" fill="url(#paint2_linear_1:1293)"/>
<path d="M45.541 79.044L51.55 105.526L88.052 97.15L107.399 66.554L81.87 52.928L45.541 79.044Z" fill="#AD307D"/>
<path opacity="0.44" d="M87.2041 4.22801L58.2771 0.51001L22.5171 5.48001L26.3811 13.389L68.9971 12.108L87.2041 4.22801Z" fill="#FFC8E5"/>
<path d="M51.5501 105.526L45.5411 79.0441L11.3891 53.5901L0.654053 65.7901L24.3841 96.3221L51.5501 105.526Z" fill="#82007D"/>
<path d="M7.90105 36.542L22.5171 5.47998L26.3811 13.389L11.3891 53.59L0.654053 65.79L7.90105 36.542Z" fill="#932D7D"/>
<defs>
<linearGradient id="paint0_linear_1:1293" x1="11.3888" y1="45.5755" x2="81.8701" y2="45.5755" gradientUnits="userSpaceOnUse">
<stop stop-color="#FF528F"/>
<stop offset="0.3461" stop-color="#FF5595"/>
<stop offset="0.8061" stop-color="#FF5FA6"/>
<stop offset="1" stop-color="#FF64AF"/>
</linearGradient>
<linearGradient id="paint1_linear_1:1293" x1="60.2526" y1="16.4334" x2="46.3578" y2="53.2139" gradientUnits="userSpaceOnUse">
<stop stop-color="#FFC8E5"/>
<stop offset="0.1446" stop-color="#C79CB3"/>
<stop offset="0.317" stop-color="#8B6D7D"/>
<stop offset="0.4833" stop-color="#594650"/>
<stop offset="0.6389" stop-color="#33282D"/>
<stop offset="0.7814" stop-color="#171215"/>
<stop offset="0.9063" stop-color="#060505"/>
<stop offset="1"/>
</linearGradient>
<linearGradient id="paint2_linear_1:1293" x1="68.997" y1="35.3913" x2="109.162" y2="35.3913" gradientUnits="userSpaceOnUse">
<stop stop-color="#FF528F"/>
<stop offset="0.183" stop-color="#FF5893"/>
<stop offset="0.4268" stop-color="#FF69A0"/>
<stop offset="0.7048" stop-color="#FF85B5"/>
<stop offset="1" stop-color="#FFAAD1"/>
</linearGradient>
</defs>
</svg>
