<svg width="30" height="30" viewBox="0 0 30 30" fill="none" xmlns="http://www.w3.org/2000/svg">
<path d="M10.3125 18.75C13.678 18.75 16.4062 16.0217 16.4062 12.6562C16.4062 9.29076 13.678 6.5625 10.3125 6.5625C6.94701 6.5625 4.21875 9.29076 4.21875 12.6562C4.21875 16.0217 6.94701 18.75 10.3125 18.75Z" stroke="#D85740" stroke-width="1.875" stroke-miterlimit="10"/>
<path d="M18.2124 6.78942C19.0506 6.55327 19.9296 6.49948 20.7903 6.63166C21.651 6.76384 22.4733 7.07892 23.202 7.55569C23.9307 8.03246 24.5487 8.65984 25.0145 9.39558C25.4802 10.1313 25.783 10.9583 25.9022 11.8209C26.0214 12.6835 25.9545 13.5616 25.7058 14.3961C25.4571 15.2306 25.0324 16.0021 24.4604 16.6587C23.8884 17.3153 23.1824 17.8417 22.3898 18.2024C21.5973 18.5631 20.7367 18.7498 19.8659 18.7499" stroke="#D85740" stroke-width="1.875" stroke-linecap="round" stroke-linejoin="round"/>
<path d="M1.87451 23.1324C2.82623 21.7787 4.0897 20.6738 5.55824 19.911C7.02679 19.1483 8.65729 18.7501 10.3121 18.75C11.9669 18.7499 13.5975 19.148 15.0661 19.9107C16.5347 20.6733 17.7982 21.7781 18.75 23.1318" stroke="#D85740" stroke-width="1.875" stroke-linecap="round" stroke-linejoin="round"/>
<path d="M19.866 18.75C21.5209 18.7488 23.1518 19.1464 24.6205 19.9091C26.0893 20.6719 27.3526 21.7773 28.3035 23.1318" stroke="#D85740" stroke-width="1.875" stroke-linecap="round" stroke-linejoin="round"/>
</svg>
