<svg width="28" height="34" viewBox="0 0 28 34" fill="none" xmlns="http://www.w3.org/2000/svg">
<path d="M25.6482 15.9333L3.15183 2.18512C2.96234 2.06932 2.74543 2.00609 2.5234 2.00193C2.30138 1.99777 2.08225 2.05284 1.88856 2.16146C1.69487 2.27008 1.53362 2.42835 1.42139 2.61996C1.30916 2.81158 1.25 3.02964 1.25 3.25171V30.7482C1.25 30.9702 1.30916 31.1883 1.42139 31.3799C1.53362 31.5715 1.69487 31.7298 1.88856 31.8384C2.08225 31.947 2.30138 32.0021 2.5234 31.9979C2.74543 31.9938 2.96234 31.9306 3.15183 31.8148L25.6482 18.0665C25.8309 17.9549 25.9819 17.7981 26.0866 17.6114C26.1913 17.4246 26.2463 17.2141 26.2463 16.9999C26.2463 16.7858 26.1913 16.5753 26.0866 16.3885C25.9819 16.2017 25.8309 16.045 25.6482 15.9333Z" stroke="white" stroke-width="2.5" stroke-linecap="round" stroke-linejoin="round"/>
</svg>
