<svg width="40" height="40" viewBox="0 0 40 40" fill="none" xmlns="http://www.w3.org/2000/svg">
<path d="M33.75 7.50098H6.25C5.55964 7.50098 5 8.06062 5 8.75098V31.251C5 31.9413 5.55964 32.501 6.25 32.501H33.75C34.4404 32.501 35 31.9413 35 31.251V8.75098C35 8.06062 34.4404 7.50098 33.75 7.50098Z" stroke="#045CEA" stroke-width="2.5" stroke-linecap="round" stroke-linejoin="round"/>
<path d="M10.625 15.001C11.6605 15.001 12.5 14.1615 12.5 13.126C12.5 12.0904 11.6605 11.251 10.625 11.251C9.58947 11.251 8.75 12.0904 8.75 13.126C8.75 14.1615 9.58947 15.001 10.625 15.001Z" fill="#045CEA"/>
<path d="M16.875 15.001C17.9105 15.001 18.75 14.1615 18.75 13.126C18.75 12.0904 17.9105 11.251 16.875 11.251C15.8395 11.251 15 12.0904 15 13.126C15 14.1615 15.8395 15.001 16.875 15.001Z" fill="#045CEA"/>
</svg>
