<svg width="47" height="45" viewBox="0 0 47 45" fill="none" xmlns="http://www.w3.org/2000/svg">
<path d="M9.76933 28.3118C9.76933 30.9148 7.59427 33.0186 4.9031 33.0186C2.21192 33.0186 0.0368652 30.9148 0.0368652 28.3118C0.0368652 25.7088 2.21192 23.605 4.9031 23.605H9.76933V28.3118ZM12.2024 28.3118C12.2024 25.7088 14.3775 23.605 17.0687 23.605C19.7598 23.605 21.9349 25.7088 21.9349 28.3118V40.0788C21.9349 42.6818 19.7598 44.7856 17.0687 44.7856C14.3775 44.7856 12.2024 42.6818 12.2024 40.0788V28.3118Z" fill="#E01E5A"/>
<path d="M17.0687 9.41351C14.3775 9.41351 12.2025 7.30974 12.2025 4.70676C12.2025 2.10378 14.3775 0 17.0687 0C19.7599 0 21.9349 2.10378 21.9349 4.70676V9.41351H17.0687ZM17.0687 11.8025C19.7599 11.8025 21.9349 13.9063 21.9349 16.5093C21.9349 19.1123 19.7599 21.2161 17.0687 21.2161H4.86624C2.17506 21.2161 0 19.1123 0 16.5093C0 13.9063 2.17506 11.8025 4.86624 11.8025H17.0687Z" fill="#36C5F0"/>
<path d="M36.5706 16.5094C36.5706 13.9064 38.7457 11.8027 41.4369 11.8027C44.128 11.8027 46.3031 13.9064 46.3031 16.5094C46.3031 19.1124 44.128 21.2162 41.4369 21.2162H36.5706V16.5094ZM34.1375 16.5094C34.1375 19.1124 31.9624 21.2162 29.2713 21.2162C26.5801 21.2162 24.405 19.1124 24.405 16.5094V4.70688C24.405 2.1039 26.5801 0.00012207 29.2713 0.00012207C31.9624 0.00012207 34.1375 2.1039 34.1375 4.70688V16.5094Z" fill="#2EB67D"/>
<path d="M29.271 35.372C31.9622 35.372 34.1373 37.4758 34.1373 40.0788C34.1373 42.6818 31.9622 44.7856 29.271 44.7856C26.5798 44.7856 24.4048 42.6818 24.4048 40.0788V35.372H29.271ZM29.271 33.0186C26.5798 33.0186 24.4048 30.9148 24.4048 28.3118C24.4048 25.7088 26.5798 23.605 29.271 23.605H41.4735C44.1647 23.605 46.3397 25.7088 46.3397 28.3118C46.3397 30.9148 44.1647 33.0186 41.4735 33.0186H29.271Z" fill="#ECB22E"/>
</svg>
