<svg width="18" height="18" viewBox="0 0 18 18" fill="none" xmlns="http://www.w3.org/2000/svg">
<path d="M17.2809 8.02169L16.5998 8.58855C16.4724 8.69455 16.3081 8.74561 16.1431 8.7305C15.978 8.71538 15.8257 8.63534 15.7197 8.50796C15.6137 8.38059 15.5626 8.21631 15.5777 8.05127C15.5927 7.88622 15.6727 7.73392 15.8001 7.62786L16.4812 7.06099C16.4907 7.05385 16.4974 7.04358 16.5 7.03199C16.5027 7.0204 16.5012 7.00825 16.4957 6.99767C16.4869 6.97051 16.4776 6.9699 16.4687 6.96936L15.5665 6.91085C15.4011 6.90012 15.2468 6.82413 15.1374 6.69958C15.028 6.57503 14.9726 6.41212 14.9833 6.24671C14.994 6.08129 15.07 5.92691 15.1946 5.81753C15.3191 5.70814 15.482 5.65272 15.6474 5.66344L16.5496 5.72196C16.8062 5.73879 17.0517 5.83261 17.2542 5.99118C17.4566 6.14975 17.6065 6.36569 17.6843 6.61078C17.7668 6.85925 17.7724 7.12682 17.7004 7.37853C17.6285 7.63024 17.4822 7.85439 17.2809 8.02169ZM12.5202 11.3297L12.7792 12.3481C12.8201 12.5086 12.9232 12.6462 13.0656 12.7308C13.208 12.8153 13.3782 12.8399 13.5387 12.7991C13.6992 12.7583 13.837 12.6554 13.9217 12.5131C14.0064 12.3707 14.0312 12.2006 13.9905 12.04L13.7317 11.0218C13.7288 11.0114 13.7287 11.0005 13.7315 10.9901C13.7342 10.9797 13.7397 10.9702 13.7474 10.9627L14.5312 10.3104C14.6584 10.2043 14.7383 10.052 14.7533 9.88705C14.7683 9.72208 14.7172 9.5579 14.6113 9.43058C14.5053 9.30325 14.3532 9.22319 14.1882 9.20799C14.0233 9.19279 13.859 9.24369 13.7316 9.34951L12.9478 10.0018C12.7591 10.1607 12.6188 10.3695 12.5432 10.6043C12.4676 10.8392 12.4596 11.0906 12.5202 11.3297ZM13.5448 6.15332C13.5555 5.98791 13.5001 5.82501 13.3907 5.70045C13.2813 5.57588 13.127 5.49986 12.9616 5.48911L11.9353 5.4225C11.9291 5.42101 11.9235 5.41791 11.919 5.41351C11.9144 5.40911 11.9111 5.40357 11.9095 5.39748L10.1884 1.06375C10.0955 0.824107 9.93223 0.618163 9.72014 0.472942C9.50804 0.327722 9.257 0.250008 8.99996 0.25C8.74291 0.249992 8.49186 0.327688 8.27976 0.472895C8.06766 0.618102 7.9044 0.824035 7.81142 1.06367L6.09038 5.39763C6.08869 5.40368 6.08541 5.40918 6.08089 5.41355C6.07638 5.41792 6.07078 5.42101 6.06467 5.4225L1.45018 5.72196C1.1936 5.73879 0.948054 5.83262 0.745631 5.99119C0.543207 6.14975 0.393316 6.36569 0.315541 6.61078C0.233058 6.85925 0.227437 7.12682 0.299413 7.37853C0.371389 7.63024 0.517614 7.85439 0.718984 8.02169L4.25246 10.9627C4.26011 10.9702 4.26561 10.9797 4.26839 10.99C4.27116 11.0004 4.27112 11.0114 4.26825 11.0217L3.2125 15.1748C3.13951 15.4544 3.15265 15.7496 3.25022 16.0217C3.34778 16.2937 3.52522 16.53 3.7593 16.6995C3.9854 16.8648 4.25613 16.9579 4.53604 16.9667C4.81596 16.9755 5.09201 16.8996 5.32805 16.7489L8.98978 14.4289C8.99276 14.4269 8.99627 14.4257 8.99989 14.4256H9.00008C9.00365 14.4258 9.00712 14.4269 9.01008 14.4289L9.90981 14.999C10.0498 15.0877 10.2194 15.1172 10.3811 15.0809C10.5428 15.0446 10.6835 14.9455 10.7722 14.8055C10.8609 14.6655 10.8904 14.496 10.8541 14.3342C10.8178 14.1725 10.7188 14.0318 10.5788 13.9431L9.67902 13.373C9.66132 13.3618 9.64308 13.3517 9.62493 13.3414V3.03159L10.7477 5.85875C10.837 6.08443 10.9883 6.28029 11.1841 6.42379C11.3798 6.56729 11.6121 6.6526 11.8542 6.66991L12.8805 6.73651C13.0459 6.74715 13.2088 6.69171 13.3333 6.58236C13.4579 6.47301 13.5339 6.3187 13.5448 6.15332ZM14.6533 14.6474C14.6123 14.4869 14.5093 14.3493 14.3669 14.2647C14.2244 14.1802 14.0543 14.1556 13.8937 14.1964C13.7332 14.2373 13.5955 14.3401 13.5107 14.4825C13.426 14.6248 13.4013 14.7949 13.4419 14.9555L13.6587 15.8079C13.6618 15.8154 13.663 15.8236 13.6623 15.8317C13.6616 15.8398 13.6589 15.8476 13.6545 15.8544C13.6484 15.8632 13.6402 15.8704 13.6307 15.8752C13.6266 15.8738 13.6228 15.8719 13.6193 15.8694L12.8516 15.3831C12.7116 15.2944 12.5421 15.265 12.3803 15.3013C12.2186 15.3375 12.0779 15.4366 11.9892 15.5766C11.9005 15.7166 11.871 15.8862 11.9073 16.0479C11.9436 16.2096 12.0427 16.3503 12.1827 16.439L12.9503 16.9253C13.1646 17.0621 13.4152 17.1311 13.6693 17.1231C13.9234 17.1151 14.1692 17.0306 14.3745 16.8806C14.5865 16.7271 14.7473 16.5132 14.8357 16.2669C14.9241 16.0205 14.9361 15.7532 14.8701 15.4999L14.6533 14.6474Z" fill="#FF9E29"/>
</svg>
